<svg width="117" height="35" viewBox="0 0 117 35" fill="none" xmlns="http://www.w3.org/2000/svg">
<path id="Combined Shape" fill-rule="evenodd" clip-rule="evenodd" d="M10.6083 35H12.2592C13.9725 34.6318 15.0979 33.5145 16.0208 32.1291C16.3665 31.6098 16.737 31.1065 17.1081 30.6047C18.172 29.1668 19.5511 28.2605 21.392 28.1442C21.5044 28.137 21.6165 28.1277 21.7192 28.1192L21.7192 28.1192C21.7675 28.1152 21.8136 28.1113 21.8568 28.108C21.2139 27.0406 20.5884 26.0022 20.03 25.0749C20.2815 24.982 20.5177 24.887 20.7448 24.7957L20.7448 24.7957L20.7449 24.7957C21.2267 24.6019 21.6672 24.4248 22.1244 24.3197C23.09 24.0973 23.8233 23.5213 24.4989 22.8932C25.0259 22.4035 25.4788 21.8332 25.9296 21.2657L25.9296 21.2656C26.0269 21.1432 26.124 21.021 26.2217 20.8997C26.4604 20.6033 26.677 20.271 26.8188 19.9215C26.9113 19.6935 26.9975 19.4629 27.0811 19.2312C27.2564 19.6256 27.5122 19.9724 27.8484 20.2718C28.5509 20.8973 29.4626 21.2101 30.5837 21.2101C31.2898 21.2101 31.8904 21.0713 32.3854 20.7937C32.8804 20.5161 33.3026 20.1418 33.652 19.6709C33.7102 19.9099 33.7812 20.1418 33.8649 20.3667C33.9486 20.5916 34.0415 20.7954 34.1434 20.9782L37.7904 20.9887C37.5793 20.4756 37.421 19.9591 37.3154 19.439C37.2099 18.9189 37.1571 18.3531 37.1571 17.7416V13.4403C37.1571 12.1331 36.7039 11.128 35.7976 10.4252C34.8913 9.72235 33.7102 9.37094 32.2543 9.37094C30.6965 9.37094 29.4444 9.72059 28.4981 10.4199C28.2998 10.5665 28.1234 10.7205 27.9688 10.882C27.9501 10.785 27.932 10.6881 27.9149 10.5912C27.3594 7.44587 25.7605 4.96196 23.043 3.22478C22.1469 2.65195 21.2207 2.09725 20.2439 1.6837C18.6048 0.98988 16.8611 0.604098 15.1126 0.266832C14.7612 0.199312 14.4031 0.164516 14.0456 0.12978L13.9019 0.115734C13.5773 0.0833185 13.2522 0.0584867 12.927 0.0336449L12.927 0.0336443C12.7831 0.0226509 12.6392 0.0116555 12.4953 0H11.0801C11.0586 0.0118052 11.0375 0.0259231 11.0165 0.0400235C10.9719 0.0699076 10.9274 0.0997133 10.8792 0.107259C10.5127 0.165418 10.1458 0.220679 9.77893 0.275945C9.36408 0.338432 8.94921 0.400924 8.53483 0.467614C7.30843 0.664888 6.16506 1.13864 5.15286 1.80411C4.15012 2.46345 3.36571 3.38026 2.77246 4.45782C2.05541 5.76012 1.57885 7.11182 1.53247 8.59941C1.53018 8.67219 1.54265 8.74913 1.55498 8.82521C1.57448 8.94558 1.59364 9.0638 1.55345 9.15997C1.17363 10.0684 1.57758 10.9304 1.91875 11.6584L1.93575 11.6947C2.37301 12.6279 2.65428 13.3404 1.93132 14.259C1.40632 14.9253 1.26361 15.7355 1.94668 16.4939C2.06161 16.6216 2.05157 16.9872 1.95053 17.1565C1.43945 18.0145 0.893576 18.8532 0.348013 19.6913L0.347967 19.6914L0.200305 19.9183C-0.186433 20.5133 -0.00502881 21.0654 0.674201 21.2899C0.89527 21.363 1.11904 21.4287 1.36601 21.5012C1.48409 21.5358 1.60747 21.572 1.7384 21.6113C1.68997 21.7206 1.64892 21.8249 1.60995 21.9239C1.53147 22.1232 1.4614 22.3011 1.35638 22.456L1.3344 22.4883C0.850414 23.2008 0.849662 23.202 1.50086 23.779C1.52933 23.8041 1.5506 23.8369 1.56969 23.8664C1.57794 23.8791 1.58579 23.8912 1.59363 23.9018L1.40505 24.1882L1.05503 24.7195C1.78183 25.3245 1.90237 25.6559 1.67901 26.3518C1.26362 27.6468 1.75464 28.4256 3.1131 28.5992C4.38011 28.7612 5.58825 28.4624 6.79711 28.1634C6.90381 28.137 7.01052 28.1107 7.11728 28.0846C7.30016 28.0402 7.62929 28.0229 7.68424 28.1144C7.80901 28.3225 7.95732 28.5209 8.10583 28.7195L8.10584 28.7195C8.53652 29.2956 8.96885 29.8739 8.83352 30.698C8.81077 30.8362 8.84061 31.0507 8.93309 31.1285C9.91485 31.9517 9.9834 33.0822 9.98842 34.2159C9.99049 34.6879 10.1604 34.9243 10.6083 35ZM32.1124 14.231C30.4627 14.231 29.2007 14.492 28.3263 15.0139C28.3418 14.6045 28.3324 14.1935 28.323 13.7834C28.3185 13.59 28.3141 13.3967 28.3123 13.2039C28.3119 13.1679 28.3112 13.1318 28.3101 13.0958L30.7475 13.103C30.7475 12.6953 30.8512 12.3949 31.0587 12.2016C31.2661 12.0083 31.581 11.9117 32.0032 11.9117C32.4982 11.9117 32.864 12.0417 33.1006 12.3017C33.3372 12.5618 33.4555 12.9343 33.4555 13.4192V14.231H32.1124ZM47.8552 17.7838C47.8552 17.5027 47.6896 17.2514 47.3583 17.03C47.0271 16.8086 46.4247 16.6101 45.5512 16.4344C44.1754 16.1743 43.138 15.7702 42.4392 15.222C41.7404 14.6738 41.3909 13.9253 41.3909 12.9765C41.3909 11.9714 41.8277 11.1192 42.7013 10.4199C43.5748 9.72059 44.7577 9.37094 46.25 9.37094C47.8224 9.37094 49.0745 9.71005 50.0063 10.3883C50.938 11.0665 51.3821 11.9433 51.3384 13.0186L51.3166 13.0819H47.735C47.735 12.6321 47.6168 12.2912 47.3802 12.0593C47.1436 11.8273 46.7632 11.7114 46.2391 11.7114C45.8533 11.7114 45.5294 11.8133 45.2673 12.0171C45.0052 12.2209 44.8742 12.481 44.8742 12.7972C44.8742 13.0994 45.0252 13.356 45.3273 13.5668C45.6294 13.7777 46.2391 13.9674 47.1563 14.1361C48.5977 14.4102 49.6659 14.8196 50.3611 15.3643C51.0563 15.909 51.4039 16.6804 51.4039 17.6784C51.4039 18.7045 50.9326 19.5497 49.9899 20.2138C49.0472 20.878 47.8006 21.2101 46.25 21.2101C44.6412 21.2101 43.3692 20.8165 42.4337 20.0293C41.4983 19.2422 41.0525 18.3636 41.0961 17.3937L41.118 17.3305H44.4593C44.4738 17.8717 44.6431 18.2617 44.967 18.5007C45.291 18.7397 45.7514 18.8591 46.3483 18.8591C46.8433 18.8591 47.2182 18.766 47.473 18.5798C47.7278 18.3935 47.8552 18.1282 47.8552 17.7838ZM57.5055 6.74693V9.58285H59.5038V12.0498H57.5055V17.2788C57.5055 17.6865 57.5911 17.9799 57.7621 18.1591C57.9332 18.3384 58.1643 18.428 58.4555 18.428C58.6885 18.428 58.8723 18.4209 59.0069 18.4069C59.1416 18.3928 59.3145 18.3647 59.5256 18.3225L59.7877 20.9581C59.38 21.0495 59.0124 21.1145 58.6848 21.1532C58.3572 21.1918 57.9714 21.2112 57.5274 21.2112C56.3117 21.2112 55.3908 20.8984 54.7648 20.2729C54.1388 19.6474 53.8257 18.6564 53.8257 17.2999V12.0498H52.166V9.58285H53.8257V6.74693H57.5055ZM72.9587 6.20894H67.1715V20.9895H66.5818V6.20894H60.7946V5.63965H72.9587V6.20894ZM77.775 18.9216L78.2118 20.0602H78.2773L78.3428 19.8915L82.4266 9.581H83.0818L77.8296 22.8856C77.5093 23.6868 77.1362 24.3387 76.7104 24.8412C76.2845 25.3437 75.6057 25.595 74.6739 25.595C74.5356 25.595 74.3827 25.5827 74.2153 25.5581C74.0479 25.5335 73.9241 25.5071 73.844 25.479L73.9423 24.9413C74.0224 24.9624 74.1425 24.9835 74.3027 25.0046C74.4628 25.0257 74.5866 25.0362 74.6739 25.0362C75.3436 25.0362 75.8659 24.8465 76.2408 24.4669C76.6157 24.0874 76.9488 23.5251 77.2399 22.7801L77.9497 20.9247L73.2435 9.581H73.8877L77.775 18.9216ZM94.3582 15.4961C94.3582 17.2532 93.9651 18.6448 93.1789 19.6709C92.3927 20.697 91.3081 21.2101 89.9249 21.2101C89.0004 21.2101 88.1942 21.0309 87.5063 20.6724C86.8184 20.314 86.2815 19.829 85.8957 19.2176V25.3744H85.3061V9.58179H85.7647L85.8848 11.627C86.2779 10.9242 86.8129 10.3725 87.4899 9.97186C88.1669 9.57124 88.9713 9.37094 89.9031 9.37094C91.2935 9.37094 92.3836 9.90332 93.1734 10.9681C93.9632 12.0329 94.3582 13.4684 94.3582 15.2747V15.4961ZM93.7608 15.2751C93.7608 13.6937 93.4314 12.4093 92.7726 11.4218C92.1138 10.4343 91.162 9.9406 89.9172 9.9406C88.7743 9.9406 87.8862 10.2182 87.2529 10.7735C86.6196 11.3287 86.1682 12.0104 85.8989 12.8187V18.1532C86.1901 18.9122 86.6778 19.5167 87.3621 19.9665C88.0463 20.4163 88.9053 20.6412 89.939 20.6412C91.1838 20.6412 92.132 20.1773 92.7835 19.2496C93.435 18.3218 93.7608 17.0708 93.7608 15.4965V15.2751ZM101.6 21.2101C100.253 21.2101 99.0901 20.6847 98.111 19.634C97.1319 18.5833 96.6423 17.2778 96.6423 15.7175V15.0428C96.6423 13.4052 97.1155 12.0505 98.0619 10.9787C99.0082 9.90684 100.177 9.37094 101.567 9.37094C102.899 9.37094 103.986 9.79263 104.826 10.636C105.667 11.4794 106.088 12.611 106.088 14.0307V14.9057H97.232V15.7175C97.232 17.095 97.6506 18.26 98.4877 19.2123C99.3249 20.1646 100.362 20.6408 101.6 20.6408C102.481 20.6408 103.218 20.5248 103.811 20.2929C104.404 20.061 104.912 19.7131 105.334 19.2492L105.651 19.692C105.185 20.191 104.619 20.5688 103.953 20.8253C103.287 21.0818 102.502 21.2101 101.6 21.2101ZM101.566 9.9406C100.394 9.9406 99.419 10.3535 98.6401 11.1793C97.8611 12.0052 97.4207 13.0366 97.3188 14.2735L97.3516 14.3368H105.497V13.9889C105.497 12.8292 105.133 11.8646 104.405 11.095C103.677 10.3254 102.731 9.9406 101.566 9.9406ZM116.079 18.195C116.079 17.5905 115.812 17.0406 115.277 16.5451C114.741 16.0496 113.808 15.6613 112.476 15.3801C111.071 15.092 110.053 14.7212 109.424 14.2679C108.794 13.8146 108.479 13.1416 108.479 12.249C108.479 11.4337 108.836 10.7502 109.549 10.1985C110.263 9.64679 111.224 9.37094 112.432 9.37094C113.735 9.37094 114.761 9.66612 115.511 10.2565C116.261 10.8469 116.618 11.6165 116.581 12.5653L116.56 12.6286H116.057C116.057 11.8835 115.731 11.2493 115.08 10.7256C114.428 10.202 113.546 9.94023 112.432 9.94023C111.326 9.94023 110.488 10.1704 109.921 10.6308C109.353 11.0911 109.069 11.6235 109.069 12.2279C109.069 12.8253 109.309 13.3349 109.79 13.7566C110.27 14.1783 111.224 14.5473 112.65 14.8636C113.968 15.1587 114.967 15.5611 115.648 16.0707C116.328 16.5802 116.669 17.2918 116.669 18.2055C116.669 19.0981 116.29 19.822 115.533 20.3773C114.776 20.9325 113.771 21.2101 112.519 21.2101C111.144 21.2101 110.064 20.9132 109.282 20.3193C108.499 19.7254 108.133 19.0032 108.184 18.1528L108.206 18.0895H108.687C108.745 18.9892 109.145 19.6393 109.888 20.0399C110.63 20.4405 111.508 20.6408 112.519 20.6408C113.611 20.6408 114.478 20.3948 115.118 19.9028C115.759 19.4109 116.079 18.8416 116.079 18.195ZM32.7129 18.4584C32.4071 18.599 32.0723 18.6693 31.7083 18.6693C31.3443 18.6693 31.0477 18.5691 30.8184 18.3688C30.5891 18.1685 30.4744 17.9067 30.4744 17.5834C30.4744 17.1617 30.6073 16.8138 30.873 16.5397C31.1387 16.2656 31.5627 16.1286 32.1451 16.1286H33.4554V17.9102C33.2661 18.1351 33.0186 18.3179 32.7129 18.4584ZM23.221 15.6662L23.1991 15.6029H19.6067C19.5557 16.6009 19.3446 17.3284 18.9734 17.7852C18.6021 18.242 17.9724 18.4705 17.0843 18.4705C16.1671 18.4705 15.4464 18.1436 14.9223 17.49C14.3982 16.8364 14.1361 15.9789 14.1361 14.9177V11.6917C14.1361 10.6374 14.3763 9.78524 14.8568 9.13512C15.3372 8.485 15.996 8.15994 16.8332 8.15994C17.8232 8.15994 18.5238 8.40242 18.9351 8.88737C19.3464 9.37233 19.5776 10.1138 19.6285 11.1118H23.221L23.2428 11.0486C23.1045 9.24932 22.5039 7.86125 21.4411 6.88431C20.3783 5.90737 18.8423 5.41891 16.8332 5.41891C14.9405 5.41891 13.4027 6.00401 12.2198 7.17422C11.0369 8.34444 10.4454 9.85727 10.4454 11.7127V14.9177C10.4454 16.7802 11.0605 18.2947 12.2908 19.4614C13.521 20.6281 15.1188 21.2115 17.0843 21.2115C19.0425 21.2115 20.5366 20.7371 21.5667 19.7883C22.5967 18.8394 23.1482 17.4654 23.221 15.6662Z" fill="white"/>
</svg>
