<svg width="19" height="19" viewBox="0 0 19 19" fill="none" xmlns="http://www.w3.org/2000/svg">
<g clip-path="url(#clip0_11373_84635)">
<path d="M2.52344 7.22656C2.52344 6.82459 2.68312 6.43909 2.96735 6.15485C3.25159 5.87062 3.63709 5.71094 4.03906 5.71094H4.74383C4.99329 5.71097 5.2389 5.64944 5.45887 5.53178C5.67885 5.41413 5.86638 5.244 6.00483 5.03648L6.62017 4.11195C6.75862 3.90444 6.94615 3.73431 7.16613 3.61665C7.3861 3.499 7.63171 3.43746 7.88117 3.4375H10.8063C11.0558 3.43746 11.3014 3.499 11.5214 3.61665C11.7413 3.73431 11.9289 3.90444 12.0673 4.11195L12.6827 5.03648C12.8211 5.244 13.0087 5.41413 13.2286 5.53178C13.4486 5.64944 13.6942 5.71097 13.9437 5.71094H14.6484C15.0504 5.71094 15.4359 5.87062 15.7201 6.15485C16.0044 6.43909 16.1641 6.82459 16.1641 7.22656V14.0469C16.1641 14.4488 16.0044 14.8343 15.7201 15.1186C15.4359 15.4028 15.0504 15.5625 14.6484 15.5625H4.03906C3.63709 15.5625 3.25159 15.4028 2.96735 15.1186C2.68312 14.8343 2.52344 14.4488 2.52344 14.0469V7.22656Z" stroke="white" stroke-width="1.51562" stroke-linecap="round" stroke-linejoin="round"/>
<path d="M11.6172 10.2578C11.6172 10.8608 11.3777 11.439 10.9513 11.8654C10.525 12.2917 9.9467 12.5312 9.34375 12.5312C8.7408 12.5312 8.16254 12.2917 7.73619 11.8654C7.30983 11.439 7.07031 10.8608 7.07031 10.2578C7.07031 9.65486 7.30983 9.0766 7.73619 8.65025C8.16254 8.2239 8.7408 7.98438 9.34375 7.98438C9.9467 7.98438 10.525 8.2239 10.9513 8.65025C11.3777 9.0766 11.6172 9.65486 11.6172 10.2578V10.2578Z" stroke="white" stroke-width="1.51562" stroke-linecap="round" stroke-linejoin="round"/>
</g>
<defs>
<clipPath id="clip0_11373_84635">
<rect width="18.1875" height="18.1875" fill="white" transform="translate(0.25 0.40625)"/>
</clipPath>
</defs>
</svg>
