<svg width="19" height="19" viewBox="0 0 19 19" fill="none" xmlns="http://www.w3.org/2000/svg">
<g clip-path="url(#clip0_11373_84640)">
<path d="M14.9609 5.71094L14.3039 14.9123C14.2767 15.2947 14.1056 15.6525 13.8251 15.9138C13.5445 16.1751 13.1754 16.3203 12.7921 16.3203H6.52042C6.13707 16.3203 5.76796 16.1751 5.48744 15.9138C5.20691 15.6525 5.0358 15.2947 5.00859 14.9123L4.35156 5.71094M8.14062 8.74219V13.2891M11.1719 8.74219V13.2891M11.9297 5.71094V3.4375C11.9297 3.23652 11.8498 3.04376 11.7077 2.90165C11.5656 2.75953 11.3729 2.67969 11.1719 2.67969H8.14062C7.93964 2.67969 7.74689 2.75953 7.60477 2.90165C7.46265 3.04376 7.38281 3.23652 7.38281 3.4375V5.71094M3.59375 5.71094H15.7188" stroke="white" stroke-width="1.51562" stroke-linecap="round" stroke-linejoin="round"/>
</g>
<defs>
<clipPath id="clip0_11373_84640">
<rect width="18.1875" height="18.1875" fill="white" transform="translate(0.5625 0.40625)"/>
</clipPath>
</defs>
</svg>
