<svg width="21" height="18" viewBox="0 0 21 18" fill="none" xmlns="http://www.w3.org/2000/svg">
<path d="M3.54848 1C2.13708 1 0.99292 2.14416 0.99292 3.55556V6.66667C0.99292 8.07806 2.13708 9.22222 3.54848 9.22222H6.65959C8.07098 9.22222 9.21514 8.07806 9.21514 6.66667V3.55556C9.21514 2.14416 8.07098 1 6.65959 1H3.54848ZM13.6596 8.77778C12.2482 8.77778 11.104 9.92194 11.104 11.3333V14.4444C11.104 15.8558 12.2482 17 13.6596 17H16.7707C18.1821 17 19.3263 15.8558 19.3263 14.4444V11.3333C19.3263 9.92194 18.1821 8.77778 16.7707 8.77778H13.6596ZM3.54848 11.1111C2.13708 11.1111 0.99292 12.2553 0.99292 13.6667V14.4444C0.99292 15.8558 2.13708 17 3.54848 17H6.65959C8.07098 17 9.21514 15.8558 9.21514 14.4444V13.6667C9.21514 12.2553 8.07098 11.1111 6.65959 11.1111H3.54848ZM13.6596 1C12.2482 1 11.104 2.14416 11.104 3.55556V4.33333C11.104 5.74473 12.2482 6.88889 13.6596 6.88889H16.7707C18.1821 6.88889 19.3263 5.74473 19.3263 4.33333V3.55556C19.3263 2.14416 18.1821 1 16.7707 1H13.6596Z" stroke="white" stroke-width="2" stroke-linejoin="round"/>
</svg>
