<svg width="117" height="42" viewBox="0 0 117 42" fill="none" xmlns="http://www.w3.org/2000/svg">
<path id="Combined Shape" fill-rule="evenodd" clip-rule="evenodd" d="M10.6083 41.2841H12.2592C13.9725 40.8587 15.0979 39.5679 16.0208 37.9675C16.3665 37.3675 16.737 36.7861 17.1081 36.2064C18.172 34.5452 19.5511 33.4982 21.392 33.3638C21.5044 33.3556 21.6165 33.3448 21.7192 33.3349C21.7674 33.3303 21.8136 33.3258 21.8568 33.322C21.2139 32.0889 20.5884 30.8893 20.03 29.8179C20.2815 29.7107 20.5177 29.6009 20.7448 29.4954L20.7449 29.4954C21.2267 29.2716 21.6672 29.0669 22.1244 28.9455C23.09 28.6885 23.8233 28.0231 24.4989 27.2975C25.0259 26.7317 25.4788 26.0729 25.9297 25.4172L25.9301 25.4165C26.0272 25.2754 26.1241 25.1344 26.2217 24.9944C26.4604 24.6521 26.677 24.2682 26.8188 23.8644C26.9113 23.6009 26.9975 23.3344 27.0812 23.0667C27.2565 23.5225 27.5123 23.9234 27.8486 24.2694C28.5511 24.992 29.4629 25.3533 30.5839 25.3533C31.29 25.3533 31.8906 25.193 32.3856 24.8723C32.8806 24.5515 33.3028 24.1192 33.6522 23.5751C33.7105 23.8512 33.7814 24.1192 33.8652 24.379C33.9489 24.6388 34.0417 24.8743 34.1436 25.0854L37.7906 25.0976C37.5795 24.5048 37.4212 23.9081 37.3156 23.3072C37.2101 22.7063 37.1573 22.0527 37.1573 21.3463V16.3771C37.1573 14.8669 36.7042 13.7058 35.7979 12.8938C34.8916 12.0819 33.7105 11.6759 32.2546 11.6759C30.6967 11.6759 29.4447 12.0798 28.4983 12.8877C28.2999 13.0571 28.1235 13.2351 27.9689 13.4218C27.9502 13.3096 27.932 13.1974 27.9149 13.0853C27.3594 9.45161 25.7605 6.58203 23.043 4.5751C22.1469 3.91333 21.2207 3.2725 20.2439 2.79474C18.6048 1.99319 16.8611 1.5475 15.1126 1.15787C14.7612 1.07987 14.4031 1.03967 14.0456 0.999537L13.9019 0.98331C13.5773 0.945861 13.2522 0.917174 12.927 0.888475C12.7831 0.875774 12.6392 0.863071 12.4953 0.849606H11.0801C11.0586 0.863244 11.0375 0.879554 11.0165 0.895844C10.9719 0.930368 10.9274 0.964802 10.8792 0.973519C10.5127 1.04071 10.1458 1.10455 9.77894 1.1684L9.77893 1.1684C9.36408 1.24059 8.94921 1.31278 8.53483 1.38983C7.30843 1.61773 6.16506 2.16504 5.15286 2.93385C4.15012 3.69556 3.36571 4.75473 2.77246 5.9996C2.05541 7.50412 1.57886 9.06569 1.53247 10.7843C1.53018 10.8683 1.54265 10.9572 1.55498 11.0451C1.57448 11.1842 1.59364 11.3208 1.55345 11.4319C1.17363 12.4813 1.57759 13.4772 1.91876 14.3183L1.93576 14.3602C2.37302 15.4383 2.65428 16.2614 1.93132 17.3226C1.40632 18.0924 1.26362 19.0284 1.94669 19.9046C2.06161 20.0521 2.05157 20.4745 1.95053 20.67C1.43942 21.6613 0.893512 22.6303 0.347916 23.5986L0.200307 23.8607C-0.186431 24.5481 -0.00502709 25.1859 0.674203 25.4452C0.895265 25.5297 1.11903 25.6056 1.366 25.6893L1.36639 25.6894C1.48436 25.7294 1.60761 25.7712 1.7384 25.8166C1.68997 25.9429 1.64892 26.0633 1.60995 26.1776C1.53147 26.4079 1.46141 26.6135 1.35639 26.7924L1.3344 26.8298C0.850416 27.6529 0.849664 27.6542 1.50086 28.3209C1.52933 28.3499 1.5506 28.3878 1.56969 28.4218L1.56972 28.4218C1.57796 28.4365 1.58579 28.4505 1.59363 28.4627L1.40481 28.7939L1.05503 29.4074C1.78183 30.1063 1.90237 30.4892 1.67901 31.2931C1.26362 32.7892 1.75465 33.689 3.11311 33.8895C4.38012 34.0766 5.58826 33.7314 6.79713 33.386C6.90383 33.3556 7.01053 33.3251 7.11728 33.2949C7.30016 33.2436 7.62929 33.2237 7.68424 33.3294C7.80901 33.5698 7.95733 33.799 8.10584 34.0285C8.53652 34.694 8.96885 35.3621 8.83353 36.3141C8.81078 36.4738 8.84062 36.7216 8.93309 36.8114C9.91486 37.7626 9.9834 39.0686 9.98842 40.3783C9.99049 40.9235 10.1604 41.1967 10.6083 41.2841ZM32.1126 17.2906C30.4628 17.2906 29.2007 17.5921 28.3263 18.1952C28.3419 17.722 28.3324 17.2471 28.323 16.7732C28.3185 16.5497 28.3141 16.3264 28.3123 16.1038C28.3119 16.0622 28.3112 16.0206 28.3101 15.9791L30.7477 15.9874C30.7477 15.5164 30.8514 15.1693 31.0589 14.946C31.2664 14.7228 31.5812 14.6111 32.0034 14.6111C32.4984 14.6111 32.8642 14.7613 33.1008 15.0617C33.3374 15.3622 33.4557 15.7925 33.4557 16.3528V17.2906H32.1126ZM47.8554 21.395C47.8554 21.0703 47.6898 20.78 47.3585 20.5242C47.0273 20.2684 46.4249 20.0391 45.5514 19.8361C44.1756 19.5356 43.1382 19.0688 42.4394 18.4354C41.7406 17.8021 41.3912 16.9374 41.3912 15.8412C41.3912 14.6801 41.8279 13.6956 42.7015 12.8877C43.575 12.0798 44.7579 11.6759 46.2502 11.6759C47.8226 11.6759 49.0747 12.0676 50.0065 12.8512C50.9382 13.6347 51.3823 14.6476 51.3386 15.89L51.3168 15.963H47.7353C47.7353 15.4434 47.617 15.0496 47.3804 14.7816C47.1438 14.5137 46.7634 14.3797 46.2393 14.3797C45.8535 14.3797 45.5296 14.4974 45.2675 14.7329C45.0054 14.9684 44.8744 15.2688 44.8744 15.6342C44.8744 15.9833 45.0255 16.2797 45.3276 16.5233C45.6297 16.7669 46.2393 16.9861 47.1565 17.181C48.5979 17.4976 49.6661 17.9706 50.3613 18.5999C51.0565 19.2291 51.4041 20.1203 51.4041 21.2732C51.4041 22.4587 50.9328 23.4351 49.9901 24.2024C49.0474 24.9697 47.8008 25.3533 46.2502 25.3533C44.6415 25.3533 43.3694 24.8986 42.4339 23.9893C41.4985 23.0798 41.0527 22.0649 41.0963 20.9444L41.1182 20.8713H44.4595C44.474 21.4965 44.6433 21.9472 44.9672 22.2232C45.2912 22.4993 45.7516 22.6373 46.3485 22.6373C46.8435 22.6373 47.2184 22.5298 47.4732 22.3146C47.728 22.0994 47.8554 21.7929 47.8554 21.395ZM57.5057 8.64444V11.9207H59.504V14.7707H57.5057V20.8117C57.5057 21.2826 57.5913 21.6216 57.7623 21.8286C57.9334 22.0357 58.1645 22.1392 58.4557 22.1392C58.6887 22.1392 58.8725 22.1311 59.0071 22.1149C59.1418 22.0986 59.3147 22.0661 59.5258 22.0174L59.7879 25.0623C59.3802 25.1678 59.0126 25.2429 58.685 25.2876C58.3574 25.3322 57.9716 25.3546 57.5276 25.3546C56.3119 25.3546 55.391 24.9933 54.765 24.2706C54.139 23.548 53.8259 22.4031 53.8259 20.836V14.7707H52.1662V11.9207H53.8259V8.64444H57.5057ZM72.9589 8.02292H67.1717V25.0984H66.582V8.02292H60.7948V7.36523H72.9589V8.02292ZM77.7753 22.7089L78.2121 24.0243H78.2776L78.3431 23.8294L82.4269 11.918H83.0821L77.8299 27.2884C77.5096 28.214 77.1365 28.9671 76.7107 29.5476C76.2848 30.1282 75.606 30.4185 74.6742 30.4185C74.5359 30.4185 74.383 30.4043 74.2156 30.3758C74.0482 30.3474 73.9244 30.317 73.8444 30.2845L73.9426 29.6633C74.0227 29.6877 74.1428 29.7121 74.303 29.7364C74.4631 29.7608 74.5869 29.773 74.6742 29.773C75.3439 29.773 75.8662 29.5537 76.2411 29.1153C76.616 28.6768 76.9491 28.0273 77.2403 27.1666L77.95 25.023L73.2438 11.918H73.888L77.7753 22.7089ZM94.3584 18.7521C94.3584 20.782 93.9653 22.3897 93.1791 23.5752C92.3929 24.7606 91.3083 25.3533 89.9251 25.3533C89.0006 25.3533 88.1944 25.1463 87.5065 24.7322C86.8186 24.3181 86.2817 23.7578 85.8959 23.0514V30.1642H85.3063V11.9195H85.7649L85.885 14.2823C86.2781 13.4703 86.8131 12.8329 87.4901 12.3701C88.1671 11.9073 88.9715 11.6759 89.9033 11.6759C91.2937 11.6759 92.3838 12.2909 93.1736 13.5211C93.9635 14.7512 94.3584 16.4096 94.3584 18.4963V18.7521ZM93.761 18.4968C93.761 16.6699 93.4316 15.186 92.7728 14.0452C92.114 12.9044 91.1622 12.334 89.9174 12.334C88.7745 12.334 87.8864 12.6547 87.2531 13.2962C86.6198 13.9376 86.1684 14.7252 85.8991 15.659V21.8217C86.1903 22.6987 86.678 23.3969 87.3623 23.9166C88.0466 24.4363 88.9055 24.6961 89.9392 24.6961C91.184 24.6961 92.1322 24.1602 92.7837 23.0884C93.4352 22.0166 93.761 20.5713 93.761 18.7525V18.4968ZM101.6 25.3533C100.253 25.3533 99.0903 24.7464 98.1112 23.5325C97.1321 22.3186 96.6426 20.8104 96.6426 19.0079V18.2284C96.6426 16.3365 97.1157 14.7715 98.0621 13.5332C99.0084 12.295 100.177 11.6759 101.567 11.6759C102.899 11.6759 103.986 12.1631 104.827 13.1374C105.667 14.1118 106.088 15.419 106.088 17.0592V18.0701H97.2322V19.0079C97.2322 20.5993 97.6508 21.9451 98.4879 23.0453C99.3251 24.1456 100.362 24.6957 101.6 24.6957C102.481 24.6957 103.218 24.5617 103.811 24.2937C104.404 24.0258 104.912 23.6239 105.334 23.088L105.651 23.5995C105.185 24.176 104.619 24.6124 103.953 24.9088C103.287 25.2052 102.503 25.3533 101.6 25.3533ZM101.567 12.334C100.395 12.334 99.4192 12.811 98.6403 13.7651C97.8614 14.7191 97.4209 15.9107 97.319 17.3397L97.3518 17.4128H105.498V17.0109C105.498 15.6711 105.134 14.5567 104.406 13.6676C103.678 12.7785 102.731 12.334 101.567 12.334ZM116.079 21.87C116.079 21.1717 115.812 20.5364 115.277 19.964C114.742 19.3915 113.808 18.9429 112.476 18.6181C111.071 18.2852 110.054 17.8569 109.424 17.3332C108.794 16.8095 108.479 16.032 108.479 15.0009C108.479 14.059 108.836 13.2694 109.55 12.632C110.263 11.9946 111.224 11.6759 112.432 11.6759C113.735 11.6759 114.762 12.0169 115.511 12.6989C116.261 13.381 116.618 14.2701 116.582 15.3662L116.56 15.4393H116.057C116.057 14.5786 115.732 13.8458 115.08 13.2409C114.429 12.636 113.546 12.3336 112.432 12.3336C111.326 12.3336 110.489 12.5995 109.921 13.1313C109.353 13.6632 109.069 14.2782 109.069 14.9765C109.069 15.6667 109.309 16.2553 109.79 16.7425C110.27 17.2297 111.224 17.656 112.651 18.0213C113.968 18.3624 114.967 18.8272 115.648 19.4159C116.329 20.0046 116.669 20.8267 116.669 21.8822C116.669 22.9134 116.29 23.7497 115.533 24.3912C114.776 25.0326 113.772 25.3533 112.52 25.3533C111.144 25.3533 110.065 25.0103 109.282 24.3242C108.5 23.6381 108.134 22.8038 108.185 21.8213L108.207 21.7482H108.687C108.745 22.7876 109.146 23.5386 109.888 24.0014C110.631 24.4642 111.508 24.6957 112.52 24.6957C113.612 24.6957 114.478 24.4115 115.118 23.8431C115.759 23.2747 116.079 22.617 116.079 21.87ZM32.7131 22.1741C32.4073 22.3365 32.0725 22.4177 31.7085 22.4177C31.3445 22.4177 31.0479 22.3019 30.8186 22.0705C30.5893 21.8391 30.4746 21.5367 30.4746 21.1632C30.4746 20.676 30.6075 20.2741 30.8732 19.9574C31.1389 19.6407 31.5629 19.4824 32.1453 19.4824H33.4556V21.5407C33.2663 21.8006 33.0188 22.0117 32.7131 22.1741ZM23.2209 18.9477L23.199 18.8747H19.6066C19.5556 20.0277 19.3445 20.868 18.9733 21.3958C18.602 21.9236 17.9723 22.1875 17.0842 22.1875C16.167 22.1875 15.4463 21.8099 14.9222 21.0548C14.3981 20.2997 14.136 19.3091 14.136 18.083V14.3561C14.136 13.1382 14.3762 12.1537 14.8567 11.4026C15.3372 10.6515 15.9959 10.276 16.8331 10.276C17.8231 10.276 18.5238 10.5561 18.935 11.1164C19.3463 11.6767 19.5775 12.5333 19.6284 13.6862H23.2209L23.2427 13.6132C23.1044 11.5345 22.5038 9.93094 21.441 8.80231C20.3782 7.67368 18.8422 7.10938 16.8331 7.10938C14.9404 7.10938 13.4026 7.78532 12.2197 9.13724C11.0368 10.4892 10.4453 12.2369 10.4453 14.3805V18.083C10.4453 20.2347 11.0604 21.9845 12.2907 23.3323C13.5209 24.6802 15.1188 25.3541 17.0842 25.3541C19.0424 25.3541 20.5365 24.806 21.5666 23.7099C22.5967 22.6137 23.1481 21.0264 23.2209 18.9477Z" fill="#4BC270"/>
</svg>
