<svg width="117" height="35" viewBox="0 0 117 35" fill="none" xmlns="http://www.w3.org/2000/svg">
<path id="Combined Shape" fill-rule="evenodd" clip-rule="evenodd" d="M10.6083 35H12.2592C13.9725 34.6318 15.0979 33.5145 16.0208 32.1291C16.3665 31.6098 16.737 31.1065 17.1081 30.6047C18.172 29.1668 19.5511 28.2605 21.392 28.1442C21.5044 28.137 21.6165 28.1277 21.7192 28.1192L21.7192 28.1192C21.7675 28.1152 21.8136 28.1113 21.8568 28.108C21.2139 27.0406 20.5884 26.0022 20.03 25.0749C20.2815 24.982 20.5177 24.887 20.7448 24.7957L20.7448 24.7957L20.7449 24.7957C21.2267 24.6019 21.6672 24.4248 22.1244 24.3197C23.09 24.0973 23.8233 23.5213 24.4989 22.8932C25.0259 22.4035 25.4788 21.8332 25.9296 21.2657L25.9296 21.2656C26.0269 21.1432 26.124 21.021 26.2217 20.8997C26.4604 20.6033 26.677 20.271 26.8188 19.9215C26.9113 19.6935 26.9975 19.4627 27.0812 19.231C27.2565 19.6255 27.5123 19.9725 27.8486 20.272C28.5511 20.8975 29.4629 21.2103 30.5839 21.2103C31.29 21.2103 31.8906 21.0715 32.3856 20.7938C32.8806 20.5162 33.3028 20.142 33.6522 19.6711C33.7105 19.91 33.7814 20.142 33.8652 20.3669C33.9489 20.5918 34.0417 20.7956 34.1436 20.9783L37.7906 20.9889C37.5795 20.4758 37.4212 19.9592 37.3156 19.4391C37.2101 18.919 37.1573 18.3533 37.1573 17.7418V13.4405C37.1573 12.1332 36.7042 11.1282 35.7979 10.4253C34.8916 9.72251 33.7105 9.37109 32.2546 9.37109C30.6967 9.37109 29.4447 9.72075 28.4983 10.4201C28.2999 10.5667 28.1235 10.7208 27.9689 10.8824C27.9502 10.7853 27.932 10.6882 27.9149 10.5912C27.3594 7.44587 25.7605 4.96196 23.043 3.22478C22.1469 2.65195 21.2207 2.09725 20.2439 1.6837C18.6048 0.98988 16.8611 0.604098 15.1126 0.266832C14.7612 0.199312 14.4031 0.164516 14.0456 0.12978L13.9019 0.115734C13.5773 0.0833185 13.2522 0.0584867 12.927 0.0336449L12.927 0.0336443C12.7831 0.0226509 12.6392 0.0116555 12.4953 0H11.0801C11.0586 0.0118052 11.0375 0.0259231 11.0165 0.0400235C10.9719 0.0699076 10.9274 0.0997133 10.8792 0.107259C10.5127 0.165418 10.1458 0.220679 9.77893 0.275945C9.36408 0.338432 8.94921 0.400924 8.53483 0.467614C7.30843 0.664888 6.16506 1.13864 5.15286 1.80411C4.15012 2.46345 3.36571 3.38026 2.77246 4.45782C2.05541 5.76012 1.57886 7.11182 1.53247 8.59941C1.53018 8.67219 1.54265 8.74913 1.55498 8.82521C1.57448 8.94558 1.59364 9.0638 1.55345 9.15997C1.17363 10.0684 1.57758 10.9304 1.91875 11.6584L1.93575 11.6947C2.37301 12.6279 2.65428 13.3404 1.93132 14.259C1.40632 14.9253 1.26362 15.7355 1.94669 16.4939C2.06161 16.6216 2.05157 16.9872 1.95053 17.1565C1.43945 18.0145 0.893577 18.8531 0.348015 19.6913L0.347968 19.6914L0.200306 19.9183C-0.186432 20.5133 -0.00502795 21.0654 0.674202 21.2899C0.895271 21.363 1.11904 21.4287 1.36602 21.5012C1.48409 21.5358 1.60747 21.572 1.7384 21.6113C1.68997 21.7206 1.64892 21.8249 1.60995 21.9239C1.53147 22.1232 1.46141 22.3011 1.35639 22.456L1.3344 22.4883C0.850415 23.2008 0.849663 23.202 1.50086 23.779C1.52933 23.8041 1.5506 23.8369 1.5697 23.8664C1.57794 23.8791 1.58579 23.8912 1.59363 23.9018L1.40505 24.1882L1.05503 24.7195C1.78183 25.3245 1.90237 25.6559 1.67901 26.3518C1.26362 27.6468 1.75465 28.4256 3.1131 28.5992C4.38011 28.7612 5.58825 28.4624 6.79711 28.1634C6.90381 28.137 7.01052 28.1107 7.11728 28.0846C7.30016 28.0402 7.62929 28.0229 7.68424 28.1144C7.80901 28.3225 7.95732 28.5209 8.10583 28.7195L8.10584 28.7195C8.53652 29.2956 8.96885 29.8739 8.83353 30.698C8.81078 30.8362 8.84061 31.0507 8.93309 31.1285C9.91486 31.9517 9.9834 33.0822 9.98842 34.2159C9.99049 34.6879 10.1604 34.9243 10.6083 35ZM32.1126 14.2312C30.4628 14.2312 29.2007 14.4922 28.3263 15.0142C28.3419 14.6047 28.3324 14.1936 28.323 13.7834C28.3185 13.59 28.3141 13.3967 28.3123 13.2039C28.3119 13.1679 28.3112 13.1319 28.3101 13.0959L30.7477 13.1031C30.7477 12.6955 30.8514 12.395 31.0589 12.2017C31.2664 12.0085 31.5812 11.9118 32.0034 11.9118C32.4984 11.9118 32.8642 12.0418 33.1008 12.3019C33.3374 12.5619 33.4557 12.9344 33.4557 13.4194V14.2312H32.1126ZM47.8554 17.784C47.8554 17.5028 47.6898 17.2516 47.3586 17.0302C47.0274 16.8088 46.425 16.6102 45.5515 16.4345C44.1756 16.1745 43.1383 15.7704 42.4395 15.2222C41.7406 14.6739 41.3912 13.9254 41.3912 12.9766C41.3912 11.9716 41.828 11.1194 42.7015 10.4201C43.5751 9.72075 44.758 9.3711 46.2503 9.3711C47.8227 9.3711 49.0748 9.71021 50.0065 10.3884C50.9383 11.0667 51.3824 11.9434 51.3387 13.0188L51.3169 13.082H47.7353C47.7353 12.6322 47.617 12.2914 47.3805 12.0594C47.1439 11.8275 46.7635 11.7115 46.2394 11.7115C45.8536 11.7115 45.5296 11.8134 45.2676 12.0173C45.0055 12.2211 44.8745 12.4811 44.8745 12.7974C44.8745 13.0996 45.0255 13.3561 45.3276 13.567C45.6297 13.7778 46.2394 13.9676 47.1566 14.1363C48.598 14.4104 49.6662 14.8198 50.3614 15.3645C51.0566 15.9092 51.4042 16.6805 51.4042 17.6785C51.4042 18.7047 50.9329 19.5498 49.9902 20.214C49.0475 20.8782 47.8009 21.2103 46.2503 21.2103C44.6415 21.2103 43.3694 20.8167 42.434 20.0295C41.4986 19.2423 41.0527 18.3638 41.0964 17.3939L41.1182 17.3306H44.4595C44.4741 17.8718 44.6434 18.2619 44.9673 18.5009C45.2912 18.7398 45.7517 18.8593 46.3486 18.8593C46.8436 18.8593 47.2185 18.7662 47.4733 18.5799C47.7281 18.3937 47.8554 18.1284 47.8554 17.784ZM57.5058 6.74791V9.58383H59.504V12.0508H57.5058V17.2798C57.5058 17.6875 57.5913 17.9809 57.7624 18.1601C57.9335 18.3393 58.1646 18.4289 58.4558 18.4289C58.6887 18.4289 58.8725 18.4219 59.0072 18.4079C59.1419 18.3938 59.3148 18.3657 59.5259 18.3235L59.7879 20.9591C59.3803 21.0505 59.0127 21.1155 58.6851 21.1542C58.3575 21.1928 57.9717 21.2121 57.5276 21.2121C56.312 21.2121 55.3911 20.8994 54.7651 20.2739C54.139 19.6483 53.826 18.6574 53.826 17.3009V12.0508H52.1663V9.58383H53.826V6.74791H57.5058ZM72.9589 6.20992H67.1717V20.9904H66.5821V6.20992H60.7949V5.64063H72.9589V6.20992ZM77.7753 18.9226L78.212 20.0612H78.2775L78.3431 19.8925L82.4269 9.58198H83.082L77.8298 22.8865C77.5096 23.6878 77.1365 24.3396 76.7106 24.8422C76.2848 25.3447 75.606 25.596 74.6742 25.596C74.5359 25.596 74.383 25.5837 74.2156 25.5591C74.0481 25.5345 73.9244 25.5081 73.8443 25.48L73.9426 24.9423C74.0227 24.9634 74.1428 24.9845 74.3029 25.0056C74.4631 25.0267 74.5868 25.0372 74.6742 25.0372C75.3439 25.0372 75.8662 24.8474 76.2411 24.4679C76.616 24.0884 76.949 23.5261 77.2402 22.7811L77.95 20.9257L73.2438 9.58198H73.888L77.7753 18.9226ZM94.3585 15.4963C94.3585 17.2533 93.9654 18.6449 93.1792 19.6711C92.393 20.6972 91.3083 21.2103 89.9252 21.2103C89.0007 21.2103 88.1945 21.031 87.5066 20.6726C86.8187 20.3142 86.2818 19.8292 85.896 19.2177V25.3745H85.3064V9.58195H85.765L85.8851 11.6272C86.2782 10.9243 86.8132 10.3726 87.4902 9.97202C88.1672 9.5714 88.9716 9.3711 89.9034 9.3711C91.2938 9.3711 92.3839 9.90349 93.1737 10.9683C93.9635 12.0331 94.3585 13.4686 94.3585 15.2749V15.4963ZM93.761 15.2761C93.761 13.6947 93.4316 12.4103 92.7728 11.4228C92.114 10.4353 91.1622 9.94158 89.9174 9.94158C88.7746 9.94158 87.8865 10.2192 87.2531 10.7744C86.6198 11.3297 86.1685 12.0114 85.8991 12.8197V18.1541C86.1903 18.9132 86.6781 19.5176 87.3623 19.9674C88.0466 20.4173 88.9056 20.6422 89.9393 20.6422C91.1841 20.6422 92.1322 20.1783 92.7838 19.2506C93.4353 18.3228 93.761 17.0718 93.761 15.4974V15.2761ZM101.6 21.2103C100.253 21.2103 99.0905 20.6849 98.1115 19.6342C97.1323 18.5834 96.6428 17.2779 96.6428 15.7176V15.0429C96.6428 13.4053 97.116 12.0506 98.0623 10.9788C99.0087 9.907 100.177 9.3711 101.567 9.3711C102.9 9.3711 103.986 9.79279 104.827 10.6362C105.668 11.4796 106.088 12.6111 106.088 14.0309V14.9059H97.2324V15.7176C97.2324 17.0952 97.651 18.2601 98.4882 19.2125C99.3253 20.1648 100.363 20.641 101.6 20.641C102.481 20.641 103.218 20.525 103.811 20.2931C104.405 20.0611 104.912 19.7132 105.335 19.2494L105.651 19.6922C105.185 20.1912 104.619 20.5689 103.953 20.8255C103.287 21.082 102.503 21.2103 101.6 21.2103ZM101.567 9.94158C100.395 9.94158 99.4192 10.3545 98.6403 11.1803C97.8614 12.0061 97.421 13.0375 97.3191 14.2745L97.3518 14.3378H105.498V13.9899C105.498 12.8302 105.134 11.8656 104.406 11.096C103.678 10.3264 102.731 9.94158 101.567 9.94158ZM116.079 18.1951C116.079 17.5907 115.812 17.0407 115.277 16.5452C114.742 16.0497 113.808 15.6614 112.476 15.3803C111.071 15.0921 110.054 14.7214 109.424 14.2681C108.794 13.8147 108.479 13.1418 108.479 12.2492C108.479 11.4339 108.836 10.7504 109.549 10.1987C110.263 9.64696 111.224 9.3711 112.432 9.3711C113.735 9.3711 114.762 9.66628 115.511 10.2567C116.261 10.847 116.618 11.6166 116.582 12.5655L116.56 12.6287H116.057C116.057 11.8837 115.732 11.2494 115.08 10.7258C114.429 10.2022 113.546 9.94039 112.432 9.94039C111.326 9.94039 110.489 10.1706 109.921 10.6309C109.353 11.0913 109.069 11.6237 109.069 12.2281C109.069 12.8255 109.309 13.3351 109.79 13.7568C110.27 14.1785 111.224 14.5474 112.651 14.8637C113.968 15.1589 114.967 15.5613 115.648 16.0708C116.329 16.5804 116.669 17.292 116.669 18.2057C116.669 19.0983 116.29 19.8222 115.533 20.3774C114.776 20.9326 113.772 21.2103 112.52 21.2103C111.144 21.2103 110.065 20.9133 109.282 20.3194C108.499 19.7255 108.134 19.0034 108.185 18.153L108.206 18.0897H108.687C108.745 18.9893 109.145 19.6394 109.888 20.0401C110.631 20.4407 111.508 20.641 112.52 20.641C113.611 20.641 114.478 20.395 115.118 19.903C115.759 19.411 116.079 18.8417 116.079 18.1951ZM32.7131 18.4588C32.4073 18.5994 32.0725 18.6696 31.7085 18.6696C31.3445 18.6696 31.0479 18.5695 30.8186 18.3692C30.5893 18.1689 30.4746 17.9071 30.4746 17.5838C30.4746 17.1621 30.6075 16.8142 30.8732 16.5401C31.1389 16.266 31.5629 16.1289 32.1453 16.1289H33.4556V17.9106C33.2663 18.1355 33.0188 18.3182 32.7131 18.4588ZM23.2209 15.6652L23.199 15.602H19.6066C19.5556 16.6 19.3445 17.3274 18.9733 17.7843C18.602 18.2411 17.9723 18.4695 17.0842 18.4695C16.167 18.4695 15.4463 18.1427 14.9222 17.4891C14.3981 16.8354 14.136 15.978 14.136 14.9167V11.6907C14.136 10.6365 14.3762 9.7843 14.8567 9.13418C15.3372 8.48406 15.9959 8.15901 16.8331 8.15901C17.8231 8.15901 18.5238 8.40148 18.935 8.88643C19.3463 9.37139 19.5775 10.1129 19.6284 11.1109H23.2209L23.2427 11.0476C23.1044 9.24838 22.5038 7.86031 21.441 6.88337C20.3782 5.90643 18.8422 5.41797 16.8331 5.41797C14.9404 5.41797 13.4026 6.00307 12.2197 7.17329C11.0368 8.3435 10.4453 9.85633 10.4453 11.7118V14.9167C10.4453 16.7792 11.0604 18.2938 12.2907 19.4605C13.5209 20.6272 15.1188 21.2106 17.0842 21.2106C19.0424 21.2106 20.5365 20.7361 21.5666 19.7873C22.5967 18.8385 23.1481 17.4645 23.2209 15.6652Z" fill="url(#paint0_linear_11373_84468)"/>
<defs>
<linearGradient id="paint0_linear_11373_84468" x1="51.4715" y1="-13.6337" x2="103.423" y2="46.3869" gradientUnits="userSpaceOnUse">
<stop stop-color="#1E6EA9"/>
<stop offset="0.520833" stop-color="#4BC270"/>
<stop offset="1" stop-color="#FFCB3C"/>
</linearGradient>
</defs>
</svg>
