<svg width="20" height="20" viewBox="0 0 20 20" fill="none" xmlns="http://www.w3.org/2000/svg">
<path d="M6 7.5H6.01M10 7.5H10.01M14 7.5H14.01M7 13.5H3C2.46957 13.5 1.96086 13.2893 1.58579 12.9142C1.21071 12.5391 1 12.0304 1 11.5V3.5C1 2.96957 1.21071 2.46086 1.58579 2.08579C1.96086 1.71071 2.46957 1.5 3 1.5H17C17.5304 1.5 18.0391 1.71071 18.4142 2.08579C18.7893 2.46086 19 2.96957 19 3.5V11.5C19 12.0304 18.7893 12.5391 18.4142 12.9142C18.0391 13.2893 17.5304 13.5 17 13.5H12L7 18.5V13.5Z" stroke="white" stroke-width="2" stroke-linecap="round" stroke-linejoin="round"/>
</svg>
