<svg width="18" height="14" viewBox="0 0 18 14" fill="none" xmlns="http://www.w3.org/2000/svg">
<path fill-rule="evenodd" clip-rule="evenodd" d="M8.383 0.0761159C8.56569 0.15186 8.72181 0.280072 8.83163 0.444541C8.94146 0.60901 9.00005 0.80235 9 1.00012V13.0001C8.99996 13.1979 8.94129 13.3912 8.8314 13.5556C8.72152 13.72 8.56535 13.8481 8.38265 13.9238C8.19995 13.9995 7.99892 14.0193 7.80497 13.9807C7.61102 13.9421 7.43285 13.8469 7.293 13.7071L3.586 10.0001H1C0.734784 10.0001 0.48043 9.89476 0.292893 9.70722C0.105357 9.51969 0 9.26533 0 9.00012V5.00012C0 4.7349 0.105357 4.48055 0.292893 4.29301C0.48043 4.10547 0.734784 4.00012 1 4.00012H3.586L7.293 0.293116C7.43285 0.153183 7.61105 0.0578741 7.80508 0.0192471C7.9991 -0.0193799 8.20023 0.000411086 8.383 0.0761159ZM11.293 4.29312C11.4805 4.10565 11.7348 4.00033 12 4.00033C12.2652 4.00033 12.5195 4.10565 12.707 4.29312L14 5.58612L15.293 4.29312C15.3852 4.19761 15.4956 4.12142 15.6176 4.06901C15.7396 4.01661 15.8708 3.98902 16.0036 3.98787C16.1364 3.98671 16.2681 4.01201 16.391 4.06229C16.5138 4.11258 16.6255 4.18683 16.7194 4.28072C16.8133 4.37461 16.8875 4.48627 16.9378 4.60916C16.9881 4.73206 17.0134 4.86374 17.0123 4.99652C17.0111 5.1293 16.9835 5.26052 16.9311 5.38252C16.8787 5.50452 16.8025 5.61487 16.707 5.70712L15.414 7.00012L16.707 8.29312C16.8892 8.48172 16.99 8.73432 16.9877 8.99652C16.9854 9.25871 16.8802 9.50953 16.6948 9.69493C16.5094 9.88034 16.2586 9.98551 15.9964 9.98779C15.7342 9.99007 15.4816 9.88927 15.293 9.70712L14 8.41412L12.707 9.70712C12.5184 9.88927 12.2658 9.99007 12.0036 9.98779C11.7414 9.98551 11.4906 9.88034 11.3052 9.69493C11.1198 9.50953 11.0146 9.25871 11.0123 8.99652C11.01 8.73432 11.1108 8.48172 11.293 8.29312L12.586 7.00012L11.293 5.70712C11.1055 5.51959 11.0002 5.26528 11.0002 5.00012C11.0002 4.73495 11.1055 4.48064 11.293 4.29312Z" fill="#94A3B8"/>
</svg>
