<svg width="24" height="25" viewBox="0 0 24 25" fill="none" xmlns="http://www.w3.org/2000/svg">
<path d="M10.207 6.62869C10.9409 5.14336 13.0591 5.14335 13.793 6.62869L14.6249 8.3121C14.9161 8.9015 15.4784 9.31013 16.129 9.40512L17.9889 9.67669C19.6294 9.91622 20.2829 11.933 19.0947 13.0892L17.7546 14.393C17.2823 14.8526 17.0666 15.5154 17.1782 16.1649L17.4944 18.0067C17.7749 19.6403 16.0605 20.8865 14.5931 20.1157L12.9301 19.2421C12.3478 18.9361 11.6522 18.9361 11.0699 19.2421L9.40692 20.1157C7.93953 20.8865 6.22514 19.6403 6.50562 18.0067L6.82184 16.1649C6.93336 15.5154 6.71774 14.8526 6.24539 14.393L4.90532 13.0892C3.71707 11.933 4.37059 9.91622 6.01107 9.67669L7.87105 9.40512C8.52158 9.31013 9.08389 8.9015 9.37513 8.3121L10.207 6.62869Z" stroke="white" stroke-width="2" stroke-linecap="round" stroke-linejoin="round"/>
</svg>
