<svg width="24" height="25" viewBox="0 0 24 25" fill="none" xmlns="http://www.w3.org/2000/svg">
<path d="M10.325 5.27305C10.751 3.51705 13.249 3.51705 13.675 5.27305C13.7389 5.53685 13.8642 5.78183 14.0407 5.98805C14.2172 6.19427 14.4399 6.35591 14.6907 6.4598C14.9414 6.56369 15.2132 6.60691 15.4838 6.58592C15.7544 6.56494 16.0162 6.48036 16.248 6.33905C17.791 5.39905 19.558 7.16505 18.618 8.70905C18.4769 8.94071 18.3924 9.20239 18.3715 9.47283C18.3506 9.74326 18.3938 10.0148 18.4975 10.2654C18.6013 10.516 18.7627 10.7386 18.9687 10.9151C19.1747 11.0916 19.4194 11.217 19.683 11.2811C21.439 11.7071 21.439 14.2051 19.683 14.6311C19.4192 14.695 19.1742 14.8203 18.968 14.9968C18.7618 15.1733 18.6001 15.3959 18.4963 15.6467C18.3924 15.8975 18.3491 16.1692 18.3701 16.4398C18.3911 16.7105 18.4757 16.9723 18.617 17.2041C19.557 18.7471 17.791 20.5141 16.247 19.5741C16.0153 19.433 15.7537 19.3485 15.4832 19.3276C15.2128 19.3066 14.9412 19.3498 14.6906 19.4536C14.44 19.5574 14.2174 19.7188 14.0409 19.9248C13.8645 20.1308 13.7391 20.3755 13.675 20.6391C13.249 22.3951 10.751 22.3951 10.325 20.6391C10.2611 20.3753 10.1358 20.1303 9.95929 19.9241C9.7828 19.7178 9.56011 19.5562 9.30935 19.4523C9.05859 19.3484 8.78683 19.3052 8.51621 19.3262C8.24559 19.3472 7.98375 19.4318 7.752 19.5731C6.209 20.5131 4.442 18.7471 5.382 17.2031C5.5231 16.9714 5.60755 16.7097 5.62848 16.4393C5.64942 16.1688 5.60624 15.8973 5.50247 15.6467C5.3987 15.3961 5.23726 15.1735 5.03127 14.997C4.82529 14.8205 4.58056 14.6951 4.317 14.6311C2.561 14.2051 2.561 11.7071 4.317 11.2811C4.5808 11.2171 4.82578 11.0918 5.032 10.9153C5.23822 10.7389 5.39985 10.5162 5.50375 10.2654C5.60764 10.0146 5.65085 9.74289 5.62987 9.47227C5.60889 9.20165 5.5243 8.93981 5.383 8.70805C4.443 7.16505 6.209 5.39805 7.753 6.33805C8.749 6.94605 10.049 6.40805 10.325 5.27305Z" stroke="white" stroke-width="2" stroke-linecap="round" stroke-linejoin="round"/>
<path d="M15 12.9561C15 13.7517 14.6839 14.5148 14.1213 15.0774C13.5587 15.64 12.7956 15.9561 12 15.9561C11.2044 15.9561 10.4413 15.64 9.87868 15.0774C9.31607 14.5148 9 13.7517 9 12.9561C9 12.1604 9.31607 11.3973 9.87868 10.8347C10.4413 10.2721 11.2044 9.95605 12 9.95605C12.7956 9.95605 13.5587 10.2721 14.1213 10.8347C14.6839 11.3973 15 12.1604 15 12.9561V12.9561Z" stroke="white" stroke-width="2" stroke-linecap="round" stroke-linejoin="round"/>
</svg>
