<svg width="20" height="20" viewBox="0 0 20 20" fill="none" xmlns="http://www.w3.org/2000/svg">
<g clip-path="url(#clip0_11373_85450)">
<path fill-rule="evenodd" clip-rule="evenodd" d="M18 8.00008C18.0003 8.93725 17.781 9.86145 17.3598 10.6986C16.9386 11.5358 16.3271 12.2627 15.5744 12.821C14.8216 13.3792 13.9486 13.7535 13.0252 13.9136C12.1018 14.0737 11.1538 14.0153 10.257 13.7431L10 14.0001L9 15.0001L8 16.0001H6V18.0001H2V14.0001L6.257 9.74308C6.00745 8.91809 5.93857 8.04902 6.05504 7.19502C6.17152 6.34102 6.47062 5.52215 6.93199 4.79412C7.39336 4.0661 8.00616 3.44602 8.72869 2.97609C9.45122 2.50617 10.2665 2.19743 11.1191 2.07088C11.9716 1.94434 12.8415 2.00296 13.6693 2.24276C14.4972 2.48256 15.2637 2.89791 15.9166 3.46054C16.5696 4.02317 17.0936 4.71987 17.4531 5.50322C17.8127 6.28656 17.9992 7.13817 18 8.00008ZM12 4.00008C11.7348 4.00008 11.4804 4.10543 11.2929 4.29297C11.1054 4.48051 11 4.73486 11 5.00008C11 5.26529 11.1054 5.51965 11.2929 5.70718C11.4804 5.89472 11.7348 6.00008 12 6.00008C12.5304 6.00008 13.0391 6.21079 13.4142 6.58586C13.7893 6.96094 14 7.46964 14 8.00008C14 8.26529 14.1054 8.51965 14.2929 8.70718C14.4804 8.89472 14.7348 9.00008 15 9.00008C15.2652 9.00008 15.5196 8.89472 15.7071 8.70718C15.8946 8.51965 16 8.26529 16 8.00008C16 6.93921 15.5786 5.92179 14.8284 5.17165C14.0783 4.4215 13.0609 4.00008 12 4.00008Z" fill="#94A3B8"/>
</g>
<defs>
<clipPath id="clip0_11373_85450">
<rect width="20" height="20" fill="white"/>
</clipPath>
</defs>
</svg>
